<?xml version="1.0" encoding="UTF-8"?>
<!-- Created with Inkscape (http://www.inkscape.org/) -->
<svg width="400" height="99" version="1.1" viewBox="0 0 105.83 26.194" xmlns="http://www.w3.org/2000/svg" xmlns:cc="http://creativecommons.org/ns#" xmlns:dc="http://purl.org/dc/elements/1.1/" xmlns:rdf="http://www.w3.org/1999/02/22-rdf-syntax-ns#">
 <metadata>
  <rdf:RDF>
   <cc:Work rdf:about="">
    <dc:format>image/svg+xml</dc:format>
    <dc:type rdf:resource="http://purl.org/dc/dcmitype/StillImage"/>
    <dc:title/>
   </cc:Work>
  </rdf:RDF>
 </metadata>
 <g transform="translate(-26.162 -14.544)">
  <path d="m54.82 40.477c-1.8301-0.45134-2.9318-1.2412-3.4388-2.4653-0.95408-2.3033 0.76968-6.9217 3.834-10.272 1.6535-1.808 1.7906-2.0821 1.467-2.9334-0.5075-1.3348-0.44186-4.5932 0.11961-5.937 0.92296-2.2089 3.9344-4.1201 6.5021-4.1263 1.1954-0.0029 3.2934 0.96569 4.4299 2.0452 1.9845 1.885 2.5767 4.1319 1.878 7.125l-0.45292 1.9403 1.7852 1.9568c3.2857 3.6015 4.8155 8.1179 3.5674 10.531-1.0548 2.0398-2.2318 2.3004-10.778 2.3866-4.1716 0.04209-8.1827-0.07095-8.9135-0.25118zm15.656-1.0407c2.6244-0.48556 3.6482-1.6469 3.3526-3.8032-0.21749-1.5868-2.2249-5.7694-2.8635-5.9663-0.19403-0.05982-1.0361 1.157-1.8713 2.7041-0.83516 1.5471-1.6841 2.9152-1.8865 3.0403-0.20244 0.12511-1.2257-0.61949-2.2739-1.6547l-1.9058-1.8821-1.9617 1.9282c-2.2678 2.229-2.0337 2.3306-4.3076-1.8681-0.71048-1.3119-1.4558-2.3322-1.6564-2.2675-0.59173 0.19095-2.6341 4.5306-2.8668 6.0912-0.28677 1.9239 0.78645 3.2151 3.0313 3.6469 2.2389 0.43066 12.932 0.45252 15.209 0.03109zm-10.532-9.397c-0.96518-0.94417-1.9278-2.0342-2.1391-2.4222l-0.38427-0.70556-0.70184 0.70556c-0.70086 0.70457-0.69955 0.70964 0.93609 3.6253l1.6379 2.9197 2.4061-2.4061zm8.6727 0.89234 1.4588-2.6827-0.75344-0.66874c-0.63701-0.56539-0.77977-0.58696-0.92374-0.13957-0.09366 0.29104-1.0374 1.3798-2.0972 2.4196l-1.9269 1.8904 1.1603 1.1971c0.63815 0.6584 1.2645 1.0777 1.3918 0.93182 0.12734-0.1459 0.88801-1.4725 1.6904-2.9479zm-4.3899-0.80769c3.4539-1.4431 5.6883-8.495 3.6499-11.52-1.7933-2.6611-5.3191-3.4028-7.9377-1.6699-3.2594 2.157-3.4288 6.6908-0.41354 11.073 0.61212 0.88969 1.6107 1.8342 2.2191 2.099 1.3714 0.59678 1.0997 0.59489 2.4821 0.01725zm11.331 10.027c-0.50772-0.82151 2.7683-6.9599 4.2233-7.9132 3.0176-1.9772 5.8498 1.5553 3.4927 4.3565-0.5063 0.6017-2.2245 1.7251-3.8181 2.4965-3.0528 1.4776-3.5554 1.6144-3.8979 1.0602zm4.1117-2.5411c2.0559-1.0958 3.4665-2.4318 3.4665-3.2832 0-0.2348-0.31904-0.71564-0.70898-1.0685-0.62105-0.56204-0.81912-0.58267-1.5971-0.16633-1.0973 0.58725-4.2044 5.6375-3.4684 5.6375 0.1142 0 1.1528-0.50376 2.308-1.1195zm-47.422 2.0896c-0.08111-0.24253 0.13746-1.5522 0.48571-2.9104 0.61957-2.4164 1.5376-3.7042 2.6407-3.7042 0.58536 0 0.59432-0.13965 0.11891-1.8515-0.25314-0.91152-0.69865-1.4937-1.434-1.874-0.5867-0.30339-1.3776-1.0785-1.7575-1.7224-0.46139-0.782-1.0498-1.2426-1.7721-1.387-2.2533-0.45066-3.9405-3.0556-4.2559-6.5707l-0.11078-1.2347 4.0319-0.21085-0.1513-2.6114h16.581l-0.1513 2.6114 4.0319 0.21085-0.11078 1.2347c-0.31669 3.5299-2.0031 6.1201-4.2812 6.5758-0.74141 0.14828-1.2836 0.56332-1.6425 1.2573-0.29465 0.56979-1.0778 1.3558-1.7402 1.7467-0.82997 0.4897-1.3162 1.1127-1.5636 2.0037-0.46668 1.6802-0.45679 1.8221 0.12702 1.8221 1.103 0 2.0211 1.2878 2.6407 3.7042 0.34825 1.3582 0.56682 2.6679 0.48571 2.9104-0.11018 0.32947-1.649 0.44097-6.0859 0.44097s-5.9757-0.1115-6.0859-0.44097zm10.319-1.5195c0-0.10811-0.1776-0.90186-0.39466-1.7639l-0.39466-1.5673h-6.888l-0.39466 1.5673c-0.21706 0.86203-0.39466 1.6558-0.39466 1.7639 0 0.10811 1.905 0.19656 4.2333 0.19656s4.2333-0.08845 4.2333-0.19656zm-3.1676-6.5944c0.21306-0.82462 0.46855-1.7789 0.56776-2.1205 0.09922-0.34168 0.63138-0.85444 1.1826-1.1395 1.6382-0.84714 2.36-2.0788 2.6308-4.489 0.13698-1.2193 0.45622-3.2091 0.70941-4.4218l0.46036-2.2049h-13.233l0.46036 2.2049c0.2532 1.2127 0.57243 3.2025 0.70941 4.4218 0.27132 2.4152 0.99249 3.6418 2.6428 4.4952 0.7317 0.37837 1.122 0.94147 1.401 2.0214 0.21271 0.82332 0.46736 1.7748 0.5659 2.1143 0.09854 0.33955 0.47985 0.61736 0.84735 0.61736 0.49015 0 0.7714-0.39948 1.0556-1.4993zm-8.2829-8.6431c-0.45725-3.1693-0.50954-3.2632-1.8169-3.2632-1.0325 0-1.1965 0.1177-1.1965 0.85898 0 1.8019 1.5368 4.0799 2.7524 4.0799 0.39846 0 0.45257-0.34748 0.26094-1.6757zm15.992 0.93626c0.91046-0.84822 1.456-2.0999 1.456-3.3405 0-0.74128-0.16395-0.85898-1.1965-0.85898-1.3073 0-1.3596 0.09392-1.8169 3.2632-0.27687 1.919 0.19679 2.2038 1.5573 0.93626zm55.97 14.1-0.97319-1.7881 0.74637-1.0095c0.66289-0.8966 0.74637-1.4853 0.74637-5.2628v-4.2533l-1.2347-0.5888c-0.6791-0.32384-1.2347-0.75955-1.2347-0.96824s3.4505-2.1025 7.6678-4.2084l7.6678-3.829 7.6781 3.8264c4.2229 2.1045 7.6781 3.9923 7.6781 4.1951s-1.3394 1.0331-2.9765 1.845c-2.8845 1.4306-2.9799 1.5174-3.0868 2.8101-0.18104 2.1895-0.98552 2.3973-9.2825 2.3973-8.2867 0-9.1014-0.20942-9.2818-2.3858-0.0866-1.0453-0.32326-1.4329-1.129-1.8496-0.56067-0.28993-1.067-0.52719-1.1251-0.52723-0.0582-4.4e-5 -0.0821 1.835-0.0533 4.0779 0.041 3.1906 0.17538 4.2138 0.61736 4.7022 0.31069 0.34331 0.56489 0.81646 0.56489 1.0514 0 0.54676-1.3036 3.1133-1.7084 3.3635-0.16906 0.10449-0.74532-0.61466-1.2806-1.5981zm1.5779-1.3454c0-0.77151-0.55105-1.2618-0.85871-0.76397-0.25776 0.41708 0.12939 1.4487 0.54368 1.4487 0.17327 0 0.31503-0.30813 0.31503-0.68474zm15.963-6.6007c1.3097-0.12369 2.3812-0.33791 2.3812-0.47604 0-0.13813-1.4548-0.36097-3.2328-0.49519-3.5322-0.26664-9.82 0.06926-9.82 0.5246 0 0.52523 6.818 0.81059 10.672 0.44664zm-4.1451-2.0631c2.9104 0 5.887 0.10908 6.6146 0.2424l1.3229 0.2424v-3.0874l-1.6757-0.27191c-2.1659-0.35145-10.358-0.35145-12.524 0l-1.6757 0.27191v3.0874l1.3229-0.2424c0.7276-0.13332 3.7042-0.2424 6.6146-0.2424zm-8.0352-3.783c0.64825-0.27881 3.3661-0.42417 8.0352-0.42974 7.4252-0.0089 8.899 0.23827 9.2419 1.5498 0.17014 0.6506 0.2608 0.63933 2.0956-0.26052l1.9177-0.94054-13.237-6.6258-13.25 6.5958 1.8536 0.94144c1.7775 0.9028 1.864 0.91372 2.1087 0.26614 0.14031-0.37141 0.69594-0.86489 1.2347-1.0966zm-22.833 14.387c0-0.27959 0.17507-0.61654 0.38904-0.74878 0.47989-0.29659 2.0722-3.6615 2.077-4.389 0.0018-0.29194-0.69011-1.0857-1.5378-1.7639s-1.9932-1.8335-2.5456-2.5673c-0.88051-1.1697-1.1364-1.3076-2.0747-1.1186-0.58869 0.11857-1.835 0.67928-2.7695 1.246-0.93452 0.56674-1.8473 1.0304-2.0285 1.0304-0.67831 0-0.28617-1.1606 1.0638-3.1486 1.7169-2.5283 4.2397-4.7933 5.9567-5.3481 0.71125-0.22981 2.0986-1.1727 3.083-2.0953 2.8847-2.7036 6.07-3.9965 10.931-4.437l2.625-0.23787-6e-3 1.7244c-0.0157 4.4316-1.9906 9.5605-4.7398 12.31-0.84234 0.84234-1.7303 2.1339-1.9733 2.8701-1.0242 3.1033-8.4502 8.9682-8.4502 6.6737zm5.4487-4.4707c1.0983-1.1863 1.93-2.2237 1.8483-2.3054-0.0817-0.0817-0.90993 0.15053-1.8405 0.51607-1.5532 0.61009-1.7261 0.7992-2.1086 2.3054-0.22914 0.90244-0.2995 1.6408-0.15637 1.6408 0.14313 0 1.1588-0.97059 2.2571-2.1569zm0.87094-3.6002c4.1501-2.0504 7.4387-7.7008 7.4387-12.781 0-1.1728-0.0487-1.2174-1.3306-1.2174-1.865 0-5.6954 1.12-7.5525 2.2083-2.7693 1.6229-5.404 5.0037-6.0766 7.7974-0.2164 0.89883-0.01013 1.2429 1.8757 3.1287 2.3599 2.3599 2.5566 2.39 5.6453 0.86403zm-1.5731-4.9866c-0.59784-0.59784-0.86591-1.2581-0.86591-2.1327 0-2.8071 3.2336-4.0941 5.274-2.0991 1.1558 1.1302 1.1677 2.9916 0.0267 4.2061-1.1483 1.2223-3.2262 1.2343-4.4348 0.02568zm3.4278-0.77627c0.35483-0.32111 0.64514-0.90393 0.64514-1.2951 0-0.91798-0.98452-2.0016-1.8186-2.0016-0.7835 0-2.062 1.203-2.062 1.9403 0 0.71102 1.2675 1.9403 2.0007 1.9403 0.32427 0 0.8799-0.26273 1.2347-0.58384zm-10.246 0.37265c0.73006-1.6529 0.76975-1.9055 0.29954-1.9055-0.44572 0-3.4514 2.7406-3.8762 3.5344-0.28124 0.52552-0.15639 0.54089 1.3292 0.16368 1.4086-0.35765 1.7253-0.61025 2.2475-1.7926z" fill="#0e689c" stroke-width=".35278"/>
 </g>
</svg>
