<?xml version="1.0" encoding="UTF-8" standalone="no"?>
<svg
   xmlns:dc="http://purl.org/dc/elements/1.1/"
   xmlns:cc="http://creativecommons.org/ns#"
   xmlns:rdf="http://www.w3.org/1999/02/22-rdf-syntax-ns#"
   xmlns:svg="http://www.w3.org/2000/svg"
   xmlns="http://www.w3.org/2000/svg"
   width="43.362446"
   height="32.148197"
   viewBox="0 0 43.362446 32.148197"
   version="1.1"
   id="svg820">
  <defs
     id="defs814" />
  <metadata
     id="metadata817">
    <rdf:RDF>
      <cc:Work
         rdf:about="">
        <dc:format>image/svg+xml</dc:format>
        <dc:type
           rdf:resource="http://purl.org/dc/dcmitype/StillImage" />
        <dc:title></dc:title>
      </cc:Work>
    </rdf:RDF>
  </metadata>
  <g
     transform="matrix(0.25066998,0,0,0.25066998,-3.5299468,-19.182213)"
     id="layer1">
    <path
       style="fill:#000000;stroke-width:4.51051569"
       d="M 107.50908,187.62231 C 107.27381,172.08263 110.37603,175.13242 93.358509,171.06666 83.822042,168.78824 77.346458,166.52551 60.072408,155.26555 34.258596,138.43902 23.276814,115.83259 17.029604,88.454755 13.569105,73.289432 10.687773,70.654475 23.45925,91.917866 29.849853,102.55766 35.942564,109.5291 45.983145,117.2367 c 13.748289,10.55381 29.291843,18.6153 47.8288,21.51632 17.546075,2.74594 13.970265,-3.56866 13.661135,-18.05307 l -0.31388,-14.70711 24.76313,16.61956 c 8.04925,4.80568 16.61524,9.91307 29.72952,16.8381 20.16288,10.06681 25.41639,10.31773 25.41639,12.01912 0,1.70138 -12.21459,7.18828 -26.46642,16.07181 -11.70301,7.12789 -28.02544,18.24688 -32.63577,21.6863 l -20.83724,15.54513 z"
       id="path833" />
  </g>
</svg>
