<?xml version="1.0" encoding="UTF-8" standalone="no"?>
<svg
   xmlns:dc="http://purl.org/dc/elements/1.1/"
   xmlns:cc="http://creativecommons.org/ns#"
   xmlns:rdf="http://www.w3.org/1999/02/22-rdf-syntax-ns#"
   xmlns:svg="http://www.w3.org/2000/svg"
   xmlns="http://www.w3.org/2000/svg"
   id="svg820"
   version="1.1"
   viewBox="0 0 44 44"
   height="44"
   width="44">
  <defs
     id="defs814" />
  <metadata
     id="metadata817">
    <rdf:RDF>
      <cc:Work
         rdf:about="">
        <dc:format>image/svg+xml</dc:format>
        <dc:type
           rdf:resource="http://purl.org/dc/dcmitype/StillImage" />
        <dc:title></dc:title>
      </cc:Work>
    </rdf:RDF>
  </metadata>
  <g
     id="layer1"
     transform="matrix(0.25066998,0,0,0.25066998,-3.5017618,-13.709512)">
    <path
       id="path833"
       d="M 107.50908,187.62231 C 107.27381,172.08263 110.37603,175.13242 93.358509,171.06666 83.822042,168.78824 68.800186,161.0033 59.940927,156.05444 33.039833,141.02726 17.097202,120.56591 14.662944,87.928831 13.505968,72.416788 10.687773,70.654475 23.45925,91.917866 c 6.390603,10.639794 16.1277,24.040304 23.049819,28.474384 17.351887,11.11504 28.765919,15.45975 47.302876,18.36077 17.546075,2.74594 13.970265,-3.56866 13.661135,-18.05307 l -0.31388,-14.70711 24.76313,16.61956 c 11.8622,7.96123 7.54304,4.91679 29.72952,16.8381 15.95548,8.22607 25.41639,10.31773 25.41639,12.01912 0,1.70138 -8.6646,2.45496 -22.91643,11.60145 -11.83449,7.65381 -9.17617,3.69481 -25.53579,16.69002 l -31.48721,25.01177 z"
       style="fill:#000000;stroke-width:4.51051569" />
  </g>
</svg>
