<?xml version="1.0" encoding="UTF-8" standalone="no"?>
<svg
   xmlns:dc="http://purl.org/dc/elements/1.1/"
   xmlns:cc="http://creativecommons.org/ns#"
   xmlns:rdf="http://www.w3.org/1999/02/22-rdf-syntax-ns#"
   xmlns:svg="http://www.w3.org/2000/svg"
   xmlns="http://www.w3.org/2000/svg"
   width="87"
   height="74"
   viewBox="0 0 23.018751 19.579166"
   version="1.1"
   id="svg8">
  <defs
     id="defs2" />
  <metadata
     id="metadata5">
    <rdf:RDF>
      <cc:Work
         rdf:about="">
        <dc:format>image/svg+xml</dc:format>
        <dc:type
           rdf:resource="http://purl.org/dc/dcmitype/StillImage" />
        <dc:title></dc:title>
      </cc:Work>
    </rdf:RDF>
  </metadata>
  <g
     id="layer1"
     transform="translate(-76.181386,-106.56351)">
    <path
       style="fill:#0c679c;stroke-width:0.26458332"
       d="m 78.357105,125.69123 c -0.45174,-0.45174 1.79767,-4.75367 3.02608,-5.78731 0.99985,-0.84132 1.91724,-0.84689 2.74744,-0.0167 1.45604,1.45603 0.23641,3.32878 -3.22601,4.95357 -2.33464,1.09557 -2.31045,1.08749 -2.54751,0.85043 z m 3.11566,-1.92983 c 1.86859,-1.07786 2.62007,-1.94647 2.40958,-2.78513 -0.24261,-0.96663 -1.32839,-1.18271 -2.13505,-0.4249 -0.55328,0.51978 -2.2589,3.40164 -2.2589,3.81669 0,0.34399 0.71557,0.12522 1.98437,-0.60666 z m 4.56566,0.8799 c -0.084,-0.084 0.20335,-0.72559 0.63858,-1.42573 0.80786,-1.29958 1.31408,-3.44861 0.81234,-3.44861 -0.4279,0 -2.92808,-2.34933 -3.10993,-2.92229 -0.28651,-0.9027 -2.38839,-0.48179 -4.02577,0.80617 -0.47517,0.37377 -0.7767,0.45843 -0.96437,0.27075 -0.38236,-0.38236 2.08136,-3.87139 3.50034,-4.95706 0.61053,-0.46711 1.494,-0.9588 1.96327,-1.09264 0.46927,-0.13383 1.41876,-0.79143 2.10997,-1.46133 2.0803,-2.01614 4.70465,-3.07175 8.62684,-3.47002 l 1.68152,-0.17074 -0.1722,1.66993 c -0.41752,4.049 -1.28272,6.22303 -3.43773,8.6382 -0.78262,0.8771 -1.50142,1.95199 -1.59732,2.38865 -0.23909,1.08856 -1.94887,2.96137 -3.88228,4.25245 -1.63592,1.09243 -1.87166,1.19387 -2.14326,0.92227 z m 3.58881,-3.00902 c 0.41038,-0.37108 0.98951,-1.06791 1.28695,-1.54851 0.55383,-0.89483 0.49449,-1.39713 -0.10846,-0.91816 -0.18542,0.14729 -0.76873,0.40671 -1.29625,0.57648 -0.77789,0.25034 -0.98843,0.46935 -1.11419,1.15896 -0.0853,0.46766 -0.23986,1.14794 -0.34352,1.51175 -0.17605,0.61786 -0.15493,0.63617 0.32043,0.27781 0.2799,-0.211 0.84467,-0.68725 1.25504,-1.05833 z m 0.90421,-3.1953 c 2.9618,-1.48003 4.97306,-4.47241 5.6475,-8.4024 0.4406,-2.56745 0.34867,-2.64704 -2.42603,-2.10039 -3.97899,0.7839 -6.94358,2.85494 -8.32062,5.81271 -0.93736,2.01338 -0.86125,2.40597 0.78572,4.05294 1.694,1.69401 2.08336,1.75152 4.31343,0.63714 z m -0.63933,-3.48245 c -0.72883,-0.35237 -1.25351,-1.59161 -1.03778,-2.45115 0.64331,-2.56316 4.39239,-2.12213 4.39239,0.51671 0,1.75456 -1.69954,2.7346 -3.35461,1.93444 z m 2.04909,-0.75313 c 0.58664,-0.31396 0.71129,-1.802 0.19427,-2.31902 -0.78415,-0.78415 -2.59292,-0.0226 -2.59292,1.09174 0,1.18319 1.2684,1.83217 2.39865,1.22728 z m -8.40961,1.34384 c 0.25922,-0.006 0.53581,-0.21997 0.61462,-0.47463 0.0788,-0.25466 0.31831,-0.86472 0.53221,-1.35567 0.21389,-0.49096 0.32642,-0.95514 0.25006,-1.0315 -0.3472,-0.34719 -3.85259,2.8055 -3.85259,3.46496 0,0.0641 0.44648,-0.0427 0.99218,-0.23746 0.54571,-0.19475 1.20429,-0.35931 1.46352,-0.3657 z"
       id="path826" />
  </g>
</svg>
