<?xml version="1.0" encoding="UTF-8" standalone="no"?>
<svg
   xmlns:dc="http://purl.org/dc/elements/1.1/"
   xmlns:cc="http://creativecommons.org/ns#"
   xmlns:rdf="http://www.w3.org/1999/02/22-rdf-syntax-ns#"
   xmlns:svg="http://www.w3.org/2000/svg"
   xmlns="http://www.w3.org/2000/svg"
   id="svg8"
   version="1.1"
   viewBox="0 0 23.018752 19.579167"
   height="74"
   width="87">
  <defs
     id="defs2" />
  <metadata
     id="metadata5">
    <rdf:RDF>
      <cc:Work
         rdf:about="">
        <dc:format>image/svg+xml</dc:format>
        <dc:type
           rdf:resource="http://purl.org/dc/dcmitype/StillImage" />
        <dc:title></dc:title>
      </cc:Work>
    </rdf:RDF>
  </metadata>
  <g
     transform="translate(-48.37907,-58.039465)"
     id="layer1">
    <path
       id="path842"
       d="m 55.911302,76.345607 c 0.0017,-0.400182 0.176481,-1.382448 0.388343,-2.182813 0.356673,-1.347426 0.70116,-1.82096 1.82855,-2.513542 0.669,-0.410981 0.093,-2.133826 -0.881972,-2.638001 -0.414682,-0.214441 -0.993796,-0.720647 -1.286921,-1.124903 -0.293125,-0.404257 -1.100994,-1.032669 -1.795264,-1.396471 -0.69427,-0.363802 -1.497837,-0.9832 -1.785704,-1.37644 -0.529123,-0.722806 -1.315669,-3.831467 -1.070003,-4.228964 0.07323,-0.118486 0.654871,-0.215429 1.292538,-0.215429 1.246937,0 1.5875,-0.283803 1.5875,-1.322917 v -0.661458 h 6.217709 6.217709 v 0.661458 c 0,1.039114 0.340563,1.322917 1.5875,1.322917 0.637667,0 1.219309,0.09694 1.292538,0.215429 0.245666,0.397497 -0.54088,3.506158 -1.070003,4.228964 -0.287867,0.39324 -1.091434,1.012638 -1.785704,1.37644 -0.69427,0.363802 -1.502139,0.992214 -1.795264,1.396471 -0.293125,0.404256 -0.872239,0.910462 -1.286921,1.124903 -0.974967,0.504175 -1.550972,2.22702 -0.881972,2.638001 1.12739,0.692582 1.471877,1.166116 1.82855,2.513542 0.211862,0.800365 0.386616,1.782631 0.388343,2.182813 l 0.0031,0.727604 H 60.406037 55.90812 Z m 7.522816,-0.836162 c 0.08187,-0.132466 -9.26e-4,-0.698013 -0.183976,-1.25677 l -0.33283,-1.015922 h -2.511234 -2.511234 l -0.33283,1.015922 c -0.183055,0.558757 -0.265845,1.124304 -0.183976,1.25677 0.194302,0.314387 5.861778,0.314387 6.05608,0 z M 61.33212,70.101542 c 0.378498,-1.080003 0.755169,-1.646254 1.322916,-1.988747 0.436563,-0.263355 0.946769,-0.6642 1.133791,-0.890765 0.290715,-0.352182 1.379751,-5.851551 1.379751,-6.967408 0,-0.315333 -0.80347,-0.379328 -4.7625,-0.379328 -3.95903,0 -4.7625,0.06399 -4.7625,0.379328 0,0.20863 0.234605,1.772944 0.521346,3.476253 0.542446,3.222271 0.825235,3.806925 2.180286,4.507649 0.499314,0.258205 0.810467,0.714056 1.01995,1.494266 0.676702,2.520353 1.179851,2.61468 1.96696,0.368752 z m -6.434911,-6.139318 c -0.109544,-1.653171 -0.436351,-2.234847 -1.255619,-2.234847 -1.207591,0 -1.182653,1.435731 0.05039,2.901121 0.93771,1.114405 1.309597,0.908818 1.205227,-0.666274 z m 12.232302,0.655178 c 1.224143,-1.454812 1.244532,-2.890025 0.04106,-2.890025 -0.764765,0 -1.067067,0.47691 -1.309949,2.066574 -0.280185,1.833815 0.171877,2.127182 1.268894,0.823451 z"
       style="fill:#0c679c;stroke-width:0.26458335" />
  </g>
</svg>
