<?xml version="1.0" encoding="UTF-8" standalone="no"?>
<svg
   xmlns:dc="http://purl.org/dc/elements/1.1/"
   xmlns:cc="http://creativecommons.org/ns#"
   xmlns:rdf="http://www.w3.org/1999/02/22-rdf-syntax-ns#"
   xmlns:svg="http://www.w3.org/2000/svg"
   xmlns="http://www.w3.org/2000/svg"
   id="svg8"
   version="1.1"
   viewBox="0 0 23.01875 19.579167"
   height="74"
   width="87">
  <defs
     id="defs2" />
  <metadata
     id="metadata5">
    <rdf:RDF>
      <cc:Work
         rdf:about="">
        <dc:format>image/svg+xml</dc:format>
        <dc:type
           rdf:resource="http://purl.org/dc/dcmitype/StillImage" />
        <dc:title></dc:title>
      </cc:Work>
    </rdf:RDF>
  </metadata>
  <g
     transform="translate(-60.273415,-56.976675)"
     id="layer1">
    <path
       id="path855"
       d="m 65.116995,76.146504 c -0.906202,-0.278533 -1.419863,-0.631462 -1.802315,-1.238342 -1.112018,-1.76457 0.01091,-5.43743 2.541851,-8.313882 l 1.213959,-1.379681 -0.321955,-1.558752 c -0.616449,-2.984552 0.856567,-5.628103 3.557397,-6.384288 4.12106,-1.153826 7.562786,2.342061 6.564326,6.667625 l -0.301991,1.308297 1.186418,1.319584 c 1.626457,1.80901 2.860329,4.394396 2.996649,6.279008 0.09571,1.32317 0.02543,1.602187 -0.586847,2.329837 -0.983964,1.169375 -2.41922,1.400317 -8.567578,1.378579 -3.794907,-0.01342 -5.557185,-0.124372 -6.479914,-0.407985 z m 13.104407,-0.909555 c 1.127871,-0.313231 1.524468,-0.881733 1.524468,-2.185247 0,-1.51843 -1.400111,-4.680867 -2.072368,-4.680867 -0.101338,0 -0.709198,0.9525 -1.3508,2.116667 -0.675971,1.226528 -1.338142,2.116666 -1.574582,2.116666 -0.224418,0 -0.977669,-0.561071 -1.673891,-1.246824 l -1.265859,-1.246825 -1.328235,1.308262 c -1.611005,1.586781 -1.770311,1.530748 -3.269599,-1.15001 -0.586337,-1.048382 -1.190674,-1.869715 -1.342971,-1.825183 -0.152297,0.04453 -0.663857,0.83876 -1.1368,1.764951 -1.393454,2.728882 -1.111036,4.523466 0.799644,5.081235 0.983801,0.287192 11.626177,0.242894 12.690993,-0.05282 z m -8.26609,-4.880702 0.620434,-0.660422 -1.046651,-0.993224 c -0.575658,-0.546274 -1.240177,-1.290881 -1.476709,-1.654683 -0.401849,-0.618072 -0.459803,-0.632643 -0.883563,-0.222149 -0.427325,0.413947 -0.403356,0.528506 0.415193,1.984375 1.426847,2.537789 1.43479,2.542968 2.371296,1.546103 z m 5.930403,-1.216377 c 0.947745,-1.754682 0.984823,-1.905316 0.569865,-2.315104 -0.413416,-0.408265 -0.463596,-0.402037 -0.732122,0.09086 -0.158558,0.291041 -0.825444,1.03728 -1.48197,1.658308 l -1.193683,1.129141 0.617028,0.656796 c 0.339365,0.361238 0.749812,0.656796 0.912105,0.656796 0.162292,0 0.751242,-0.844559 1.308777,-1.876797 z m -2.097404,-1.628931 c 2.105914,-2.120842 2.851893,-5.786878 1.538405,-7.560334 -1.894964,-2.558557 -5.156477,-2.540087 -7.065894,0.04002 -1.297682,1.753495 -0.310682,5.937982 1.847568,7.832951 1.341695,1.178023 2.278811,1.09841 3.679921,-0.312633 z"
       style="fill:#0c679c;stroke-width:0.26458332" />
  </g>
</svg>
