<?xml version="1.0" encoding="UTF-8" standalone="no"?>
<svg
   xmlns:dc="http://purl.org/dc/elements/1.1/"
   xmlns:cc="http://creativecommons.org/ns#"
   xmlns:rdf="http://www.w3.org/1999/02/22-rdf-syntax-ns#"
   xmlns:svg="http://www.w3.org/2000/svg"
   xmlns="http://www.w3.org/2000/svg"
   width="87"
   height="74"
   viewBox="0 0 23.018751 19.579167"
   version="1.1"
   id="svg8">
  <defs
     id="defs2" />
  <metadata
     id="metadata5">
    <rdf:RDF>
      <cc:Work
         rdf:about="">
        <dc:format>image/svg+xml</dc:format>
        <dc:type
           rdf:resource="http://purl.org/dc/dcmitype/StillImage" />
        <dc:title></dc:title>
      </cc:Work>
    </rdf:RDF>
  </metadata>
  <g
     id="layer1"
     transform="translate(-72.193921,-148.20643)">
    <path
       style="fill:#0c679c;stroke-width:0.26458332"
       d="m 73.683243,165.89654 c -0.6483,-1.27077 -0.67827,-1.70648 -0.14768,-2.14683 0.31625,-0.26247 0.39687,-1.04186 0.39687,-3.83676 v -3.50737 l -0.79942,-0.33114 c -0.43969,-0.18212 -0.86153,-0.43161 -0.93743,-0.55442 -0.0759,-0.1228 2.45677,-1.52169 5.62814,-3.10863 l 5.76614,-2.88535 5.75462,2.87969 c 3.16504,1.58382 5.75462,2.93749 5.75462,3.00814 0,0.0706 -1.07156,0.66662 -2.38125,1.32438 l -2.38125,1.19594 v 1.04548 c 0,1.00158 -0.0472,1.0594 -1.12448,1.37701 -0.70738,0.20856 -2.79289,0.33153 -5.6224,0.33153 -2.8295,0 -4.91502,-0.12297 -5.62239,-0.33153 -1.07629,-0.31732 -1.12448,-0.37616 -1.12448,-1.37287 0,-0.88555 -0.11679,-1.10174 -0.78061,-1.44501 -0.42934,-0.22202 -0.90559,-0.40367 -1.05833,-0.40367 -0.17848,0 -0.27773,1.13458 -0.27773,3.175 0,1.86309 0.10548,3.175 0.25528,3.175 0.61917,0 0.8291,1.05576 0.39276,1.97528 -0.74087,1.56128 -1.07324,1.647 -1.69098,0.43613 z m 1.30753,-1.38804 c 0,-0.10911 -0.12944,-0.27839 -0.28764,-0.37616 -0.458,-0.28306 -0.84112,0.30157 -0.63116,0.96311 0.18482,0.58231 0.20588,0.58642 0.55545,0.10836 0.19984,-0.2733 0.36335,-0.58619 0.36335,-0.69531 z m 13.36145,-4.69831 c 0.54638,-0.11891 0.68732,-0.23978 0.45223,-0.38786 -0.51576,-0.32486 -6.01472,-0.5339 -8.33213,-0.31674 -1.99391,0.18685 -2.64019,0.52334 -1.44666,0.75323 0.9427,0.18157 8.44863,0.14243 9.32656,-0.0486 z m -5.02708,-1.4775 c 1.30969,-0.004 3.26073,0.0526 4.33564,0.12535 l 1.9544,0.13229 0.03,-1.01846 c 0.0224,-0.76122 -0.10368,-1.09493 -0.49919,-1.32118 -0.60637,-0.34687 -9.60225,-0.43257 -10.78177,-0.10271 -0.65475,0.1831 -0.7276,0.32178 -0.7276,1.38501 v 1.18152 l 1.65365,-0.18743 c 0.9095,-0.10309 2.7252,-0.19057 4.03489,-0.19439 z m -6.48229,-1.82662 c 0,-0.71685 0.77927,-0.97937 3.77989,-1.27335 2.24197,-0.21966 3.80362,-0.22093 5.92623,-0.005 3.368,0.34291 3.78763,0.4694 3.78763,1.14178 0,0.27548 0.12302,0.50086 0.27338,0.50086 0.34212,0 2.90162,-1.28635 2.90162,-1.45829 0,-0.0696 -2.23238,-1.24389 -4.96084,-2.60964 l -4.96085,-2.48318 -4.96103,2.48313 c -2.72857,1.36572 -4.96103,2.53978 -4.96103,2.60903 0,0.18359 2.45478,1.43213 2.84427,1.44663 0.1819,0.007 0.33073,-0.15169 0.33073,-0.35215 z"
       id="path839" />
  </g>
</svg>
