<?xml version="1.0" encoding="UTF-8" standalone="no"?>
<!-- Created with Inkscape (http://www.inkscape.org/) -->

<svg
   xmlns:dc="http://purl.org/dc/elements/1.1/"
   xmlns:cc="http://creativecommons.org/ns#"
   xmlns:rdf="http://www.w3.org/1999/02/22-rdf-syntax-ns#"
   xmlns:svg="http://www.w3.org/2000/svg"
   xmlns="http://www.w3.org/2000/svg"
   xmlns:sodipodi="http://sodipodi.sourceforge.net/DTD/sodipodi-0.dtd"
   xmlns:inkscape="http://www.inkscape.org/namespaces/inkscape"
   width="110.47874mm"
   height="49.200085mm"
   viewBox="0 0 110.47874 49.200085"
   version="1.1"
   id="svg8"
   inkscape:version="0.92.3 (2405546, 2018-03-11)"
   sodipodi:docname="rzd_logo.svg">
  <defs
     id="defs2" />
  <sodipodi:namedview
     id="base"
     pagecolor="#ffffff"
     bordercolor="#666666"
     borderopacity="1.0"
     inkscape:pageopacity="0.0"
     inkscape:pageshadow="2"
     inkscape:zoom="0.49497475"
     inkscape:cx="-269.9499"
     inkscape:cy="139.03554"
     inkscape:document-units="mm"
     inkscape:current-layer="layer1"
     showgrid="false"
     fit-margin-top="0"
     fit-margin-left="0"
     fit-margin-right="0"
     fit-margin-bottom="0"
     inkscape:window-width="1920"
     inkscape:window-height="1017"
     inkscape:window-x="-8"
     inkscape:window-y="-8"
     inkscape:window-maximized="1" />
  <metadata
     id="metadata5">
    <rdf:RDF>
      <cc:Work
         rdf:about="">
        <dc:format>image/svg+xml</dc:format>
        <dc:type
           rdf:resource="http://purl.org/dc/dcmitype/StillImage" />
        <dc:title></dc:title>
      </cc:Work>
    </rdf:RDF>
  </metadata>
  <g
     inkscape:label="Layer 1"
     inkscape:groupmode="layer"
     id="layer1"
     transform="translate(-32.335866,-29.452956)">
    <path
       style="fill:#f91105;stroke-width:0.26458332"
       d="m 38.489563,63.236141 -0.06828,-15.41694 -3.042708,-0.13229 -3.042709,-0.1323 0.0627,-1.85051 c 0.07122,-2.10207 0.494615,-2.89767 1.940486,-3.64633 0.845407,-0.43774 2.016162,-0.46418 17.17911,-0.38801 18.675533,0.0938 17.932606,0.008 20.524139,2.37632 1.5434,1.41058 4.980243,5.75518 6.095663,7.70569 0.77693,1.35859 0.81112,2.88535 0.0945,4.22231 -0.29575,0.55181 -2.09635,3.08012 -4.001341,5.61848 l -3.463608,4.61518 H 63.12719 c -4.202181,0 -7.640328,-0.0369 -7.640328,-0.082 0,-0.0451 2.435328,-3.33756 5.411843,-7.3166 2.976515,-3.97904 5.488014,-7.58142 5.58111,-8.00529 0.225499,-1.02668 -0.28159,-2.17252 -1.155107,-2.61011 -0.783646,-0.39257 -11.378046,-0.69306 -13.454856,-0.38162 l -1.141204,0.17113 -0.06829,15.2638 -0.06829,15.26379 -6.017135,0.0711 -6.017139,0.0711 z m 35.536359,2.77316 c 0.01,-0.10914 4.094022,-5.61578 9.075592,-12.23698 l 9.05742,-12.03854 7.61656,-0.0702 c 5.865156,-0.0541 7.592046,0.003 7.509896,0.24977 -0.0587,0.17601 -4.14709,5.71294 -9.085386,12.3043 l -8.97872,11.98429 -7.60677,0.003 c -4.18373,0.002 -7.59859,-0.0864 -7.588592,-0.19552 z m 39.231098,-0.0651 c -2.64066,-0.55116 -4.35224,-1.99029 -7.63682,-6.42118 -2.57274,-3.47061 -3.03746,-4.30051 -3.03746,-5.4243 0,-1.47124 0.67795,-2.63993 4.44217,-7.65762 l 3.62762,-4.83561 7.60677,-0.002 c 4.18372,-10e-4 7.60677,0.0638 7.60677,0.14412 0,0.0803 -2.34594,3.26528 -5.2132,7.0776 -2.86726,3.81233 -5.38683,7.4109 -5.59904,7.99683 -0.33471,0.92417 -0.33594,1.16957 -0.009,1.85208 0.58523,1.22254 1.5848,1.41656 7.38187,1.43287 5.68136,0.016 6.41177,-0.14493 7.52182,-1.65724 0.52623,-0.71692 0.55111,-1.12088 0.62699,-10.18075 0.0689,-8.23183 0.0237,-9.57896 -0.35477,-10.57002 -0.76838,-2.01183 -0.86705,-2.0317 -10.83675,-2.18276 l -8.73125,-0.13229 0.0181,-1.72996 c 0.0216,-2.06118 0.59711,-3.221626 1.90572,-3.842606 0.77488,-0.367702 2.08159,-0.408321 10.19809,-0.316992 8.00553,0.09008 9.51313,0.170606 10.76453,0.574992 4.81684,1.556546 7.73034,4.680216 8.86901,9.508796 0.54189,2.2979 0.54189,14.18447 0,16.48237 -0.88987,3.77352 -3.06287,6.75834 -6.00878,8.2536 -3.20398,1.62626 -3.7319,1.69693 -13.31127,1.78209 -4.80219,0.0427 -9.2261,-0.0257 -9.83092,-0.15191 z"
       id="path21"
       inkscape:connector-curvature="0" />
  </g>
</svg>
